<svg xmlns="http://www.w3.org/2000/svg" xmlns:xlink="http://www.w3.org/1999/xlink" viewBox="0 0 971.53 1102.76"><defs><style>.cls-1{isolation:isolate;}.cls-2{fill:#fd8974;}.cls-3{fill:#fb706e;}.cls-4,.cls-7,.cls-8{mix-blend-mode:multiply;}.cls-4{fill:url(#linear-gradient);}.cls-5{fill:#f96893;}.cls-6{fill:#ea666b;}.cls-7{fill:url(#radial-gradient);}.cls-9{fill:url(#radial-gradient-2);}.cls-10{fill:url(#radial-gradient-3);}.cls-11{fill:url(#radial-gradient-4);}.cls-12{fill:url(#radial-gradient-5);}.cls-13{fill:url(#radial-gradient-6);}.cls-14{fill:url(#radial-gradient-7);}.cls-15{fill:url(#radial-gradient-8);}.cls-16{fill:#201432;}.cls-17{fill:#fff;}</style><linearGradient id="linear-gradient" x1="6217.83" y1="244.32" x2="6217.83" y2="1576.91" gradientTransform="matrix(-1, 0, 0, 1, 6656.85, 0)" gradientUnits="userSpaceOnUse"><stop offset="0.02" stop-color="#fff" stop-opacity="0"/><stop offset="1" stop-color="#f96893"/></linearGradient><radialGradient id="radial-gradient" cx="5937.96" cy="551.38" r="382.25" gradientTransform="matrix(-1, 0, 0, 1.32, 6656.85, -177.29)" xlink:href="#linear-gradient"/><radialGradient id="radial-gradient-2" cx="1.02" cy="389.84" r="89.29" gradientTransform="translate(409.8) scale(0.74 1)" xlink:href="#linear-gradient"/><radialGradient id="radial-gradient-3" cx="-4.88" cy="677.75" r="88.3" gradientTransform="translate(409.8) scale(0.74 1)" xlink:href="#linear-gradient"/><radialGradient id="radial-gradient-4" cx="315.12" cy="672.77" r="89.28" gradientTransform="translate(409.8) scale(0.74 1)" xlink:href="#linear-gradient"/><radialGradient id="radial-gradient-5" cx="315.28" cy="376.53" r="79.29" gradientTransform="translate(409.8) scale(0.74 1)" xlink:href="#linear-gradient"/><radialGradient id="radial-gradient-6" cx="159.16" cy="672.8" r="122.68" gradientTransform="translate(409.8) scale(0.74 1)" xlink:href="#linear-gradient"/><radialGradient id="radial-gradient-7" cx="147.83" cy="577.61" r="116.72" gradientTransform="translate(409.8) scale(0.74 1)" xlink:href="#linear-gradient"/><radialGradient id="radial-gradient-8" cx="153.03" cy="433.82" r="134.25" gradientTransform="translate(409.8) scale(0.74 1)" xlink:href="#linear-gradient"/></defs><g class="cls-1"><g id="Calque_1" data-name="Calque 1"><path class="cls-2" d="M439,0h93.48V12.65C730.05,66.48,878.05,287.17,878.05,551.38s-148,484.9-345.54,538.73v12.65H439C196.56,1102.76,0,855.9,0,551.38S196.56,0,439,0Z"/><path class="cls-3" d="M210,80.89H413.75V56.13h-168A413.16,413.16,0,0,0,210,80.89Z"/><path class="cls-3" d="M133.73,155.18h280V130.42H155.52C148,138.34,140.76,146.56,133.73,155.18Z"/><path class="cls-3" d="M82.62,229.47H413.75V204.7H97.68C92.43,212.73,87.38,221.05,82.62,229.47Z"/><path class="cls-3" d="M46.77,303.75h367V279H57.27C53.6,287.11,50,295.33,46.77,303.75Z"/><path class="cls-3" d="M22.2,378H413.75V353.28H29.23C26.66,361.4,24.38,369.62,22.2,378Z"/><path class="cls-3" d="M7.05,452.33h406.7V427.57H11.11C9.62,435.69,8.24,444,7.05,452.33Z"/><path class="cls-3" d="M.51,526.62H413.75V501.85H1.8C1.2,510.08.71,518.3.51,526.62Z"/><path class="cls-3" d="M.51,576.14c.2,8.32.69,16.54,1.29,24.76h412V576.14Z"/><path class="cls-3" d="M7.05,650.43c1.19,8.32,2.57,16.64,4.06,24.76H413.75V650.43Z"/><path class="cls-3" d="M22.2,724.72c2.18,8.42,4.46,16.64,7,24.76H413.75V724.72Z"/><path class="cls-3" d="M46.77,799c3.27,8.41,6.83,16.64,10.5,24.76H413.75V799Z"/><path class="cls-3" d="M82.62,873.29c4.76,8.42,9.81,16.74,15.06,24.77H413.75V873.29Z"/><path class="cls-3" d="M133.73,947.58c7,8.62,14.27,16.84,21.79,24.76H413.75V947.58Z"/><path class="cls-3" d="M210,1021.87a413.16,413.16,0,0,0,35.76,24.76h168v-24.76Z"/><path class="cls-4" d="M439,0h93.48V12.65C730.05,66.48,878.05,287.17,878.05,551.38s-148,484.9-345.54,538.73v12.65H439C196.56,1102.76,0,855.9,0,551.38S196.56,0,439,0Z"/><ellipse class="cls-3" cx="532.51" cy="551.38" rx="439.02" ry="551.38"/><ellipse class="cls-5" cx="532.51" cy="551.38" rx="384.74" ry="502.87"/><ellipse class="cls-6" cx="532.51" cy="551.38" rx="384.74" ry="502.87"/><path class="cls-7" d="M893.3,551.38C893.3,278.9,727.47,57.19,520.54,48.9c4-.16,8-.39,12-.39,212.48,0,384.74,225.14,384.74,502.87S745,1054.25,532.51,1054.25c-4,0-8-.23-12-.39C727.47,1045.57,893.3,823.86,893.3,551.38Z"/><g class="cls-8"><path class="cls-9" d="M362.22,475.8c-4.79,0-8.89-4.92-9.35-11.49L342,307.81l127.59-3.94c5.21-.15,9.5,5.39,9.62,12.39s-4,12.8-9.19,13l-107.4,3.31,9,129.41c.48,7-3.32,13.15-8.48,13.81C362.82,475.78,362.52,475.8,362.22,475.8Z"/><path class="cls-10" d="M460.14,768.84a6.77,6.77,0,0,1-.89-.06L342.83,754l8-155.5c.36-7,4.86-12.25,10-11.77s9.09,6.54,8.73,13.52l-6.74,130.84L461,743.54c5.17.66,9,6.84,8.47,13.81C469,763.91,464.94,768.84,460.14,768.84Z"/><path class="cls-11" d="M584.34,758.74c-5,0-9.21-5.37-9.39-12.2-.2-7,3.85-12.88,9-13.14l106.69-5.33L677.81,601.19c-.71-6.93,2.89-13.33,8-14.27s9.88,3.9,10.59,10.84l15.69,154.6-127.44,6.37Z"/><path class="cls-12" d="M681.12,464.18h-.46c-5.19-.34-9.19-6.29-8.94-13.28L676,334.27,599.37,314c-5.09-1.35-8.41-8-7.41-14.88s5.94-11.34,11-10l92.52,24.49-5,138.52C690.26,458.91,686.1,464.18,681.12,464.18Z"/><path class="cls-13" d="M402.57,679.75l.46,5.07c1.48,16.49,12.53,28.31,24.78,26.51l205.43-12.19c12.16-1.79,21-16.35,20-32.78l-.29-4.54c-1.09-16.9-12.24-29.32-24.76-27.56L422.58,645.92C410.07,647.68,401.06,662.92,402.57,679.75Z"/><path class="cls-14" d="M614.66,542,421,548.25c-12.66,1.11-22.14,16.1-20.95,33.13l.31,4.41c1.15,16.34,11.72,28.49,23.87,27.43L618,607c12.8-1.12,22.31-16.41,20.91-33.6L638.5,569C637.18,552.83,626.68,541,614.66,542Z"/><path class="cls-15" d="M532.55,347.87l-21.1.34c-57.06.91-105.35,57.73-113.18,133.94a72.85,72.85,0,0,0-.52,8h0c.38,16.36,10.31,29.36,22.45,29.4l206.12.21c13,0,23.38-14.84,22.5-32.38l-.18-3.52c-.08-1.67-.39-4.43-.87-8.05C637.71,401,589,347,532.55,347.87Z"/></g><path class="cls-16" d="M355.58,471.32c-4.8,0-8.89-4.92-9.35-11.49l-10.92-156.5,127.59-3.94c5.2-.15,9.49,5.39,9.61,12.39s-4,12.8-9.18,13l-107.41,3.31,9,129.41c.49,7-3.31,13.15-8.48,13.81C356.17,471.3,355.87,471.32,355.58,471.32Z"/><path class="cls-16" d="M453.5,764.36a6.65,6.65,0,0,1-.89-.06L336.18,749.48l8-155.5c.36-7,4.86-12.25,10-11.77s9.09,6.54,8.73,13.52l-6.75,130.84,98.16,12.49c5.17.66,9,6.84,8.48,13.81C462.39,759.43,458.29,764.36,453.5,764.36Z"/><path class="cls-16" d="M577.69,754.26c-5,0-9.2-5.37-9.39-12.2-.19-7,3.86-12.88,9.05-13.14L684,723.59,671.16,596.71c-.7-6.93,2.9-13.32,8-14.27s9.89,3.9,10.59,10.84l15.69,154.6-127.43,6.37Z"/><path class="cls-16" d="M674.48,459.7H674c-5.18-.34-9.18-6.29-8.93-13.28l4.22-116.62-76.57-20.28c-5.1-1.35-8.42-8-7.41-14.88s5.94-11.34,11-10l92.53,24.49-5,138.52C683.62,454.43,679.46,459.7,674.48,459.7Z"/><path class="cls-17" d="M395.93,675.27l.45,5.07c1.49,16.49,12.54,28.31,24.79,26.51l205.42-12.19c12.16-1.79,21-16.35,20-32.78l-.29-4.54C645.2,640.44,634,628,621.52,629.78L415.93,641.44C403.42,643.2,394.41,658.44,395.93,675.27Z"/><path class="cls-17" d="M608,537.52,414.3,543.77c-12.66,1.11-22.13,16.1-20.94,33.13l.31,4.41c1.14,16.34,11.72,28.5,23.87,27.43l193.77-6.25c12.79-1.12,22.31-16.41,20.91-33.6l-.36-4.41C630.54,548.35,620,536.47,608,537.52Z"/><path class="cls-17" d="M525.9,343.39l-21.09.34c-57.07.91-105.36,57.73-113.19,133.94a72.85,72.85,0,0,0-.52,8h0c.38,16.36,10.32,29.36,22.46,29.4l206.11.21c13.05,0,23.38-14.84,22.5-32.38l-.17-3.52c-.08-1.67-.39-4.43-.88-8.05C631.07,396.51,582.3,342.49,525.9,343.39Z"/></g></g></svg>